<svg width="96" height="21" viewBox="0 0 96 21" fill="none" xmlns="http://www.w3.org/2000/svg">
<g clip-path="url(#clip0_359_6554)">
<path d="M13.5 3.3001C14.9 4.1001 15.9 5.1001 16.7 6.5001C17.5 7.9001 17.9 9.4001 17.9 11.2001C17.9 12.9001 17.5 14.5001 16.7 15.9001C15.9 17.3001 14.8 18.4001 13.5 19.1001C12.1 19.9001 10.6 20.3001 9 20.3001C7.4 20.3001 5.8 19.9001 4.5 19.1001C3.1 18.3001 2.1 17.2001 1.3 15.9001C0.4 14.5001 0 13.0001 0 11.2001C0 9.5001 0.4 7.9001 1.2 6.5001C2 5.2001 3.1 4.1001 4.4 3.3001C5.8 2.5001 7.3 2.1001 8.9 2.1001C10.6 2.2001 12.1 2.6001 13.5 3.3001ZM5.6 7.5001C4.8 8.4001 4.4 9.6001 4.4 11.2001C4.4 12.8001 4.8 14.0001 5.6 14.9001C6.4 15.8001 7.5 16.3001 8.9 16.3001C10.3 16.3001 11.4 15.8001 12.2 14.9001C13 14.0001 13.5 12.8001 13.5 11.2001C13.5 9.7001 13.1 8.4001 12.3 7.5001C11.5 6.6001 10.4 6.1001 9 6.1001C7.6 6.1001 6.4 6.6001 5.6 7.5001Z" fill="#4F5955"/>
<path d="M32.9001 7.6C33.8001 8.7 34.3001 10.1 34.3001 12V20.1H30.0001V12.5C30.0001 11.6 29.8001 10.8 29.3001 10.3C28.8001 9.8 28.2001 9.5 27.3001 9.5C26.4001 9.5 25.7001 9.8 25.2001 10.3C24.7001 10.8 24.4001 11.6 24.4001 12.6V20H20.1001V6H24.4001V8.5C24.8001 7.7 25.4001 7 26.2001 6.5C27.1001 6.3 28.0001 6 29.1001 6C30.7001 6 32.0001 6.6 32.9001 7.6Z" fill="#4F5955"/>
<path d="M45.1999 6.7C45.9999 7.2 46.4999 7.8 46.8999 8.7V6.2H51.1999V20.2H46.8999V17.7C46.4999 18.5 45.9999 19.2 45.1999 19.7C44.3999 20.2 43.4999 20.4 42.3999 20.4C41.1999 20.4 40.1999 20.1 39.2999 19.5C38.3999 18.9 37.6999 18 37.1999 17C36.6999 15.9 36.3999 14.6 36.3999 13.2C36.3999 11.7 36.6999 10.5 37.1999 9.4C37.6999 8.3 38.3999 7.5 39.3999 6.9C40.3999 6.3 41.2999 6 42.4999 6C43.4999 6 44.3999 6.2 45.1999 6.7ZM41.5999 10.7C40.9999 11.3 40.7999 12.1 40.7999 13.2C40.7999 14.3 41.0999 15.1 41.5999 15.7C42.1999 16.3 42.8999 16.6 43.7999 16.6C44.6999 16.6 45.3999 16.3 45.9999 15.7C46.5999 15.1 46.8999 14.3 46.8999 13.2C46.8999 12.1 46.5999 11.3 45.9999 10.7C45.3999 10.1 44.6999 9.8 43.7999 9.8C42.8999 9.8 42.1999 10 41.5999 10.7Z" fill="#4F5955"/>
<path d="M62 16.5V20.2001H60.1C58.5 20.2001 57.2 19.8 56.3 19C55.4 18.2 54.9 16.9 54.9 15V9.80005H53V6.20005H54.9V2.80005H59.2V6.20005H62V9.80005H59.2V15C59.2 15.6 59.3 15.9 59.5 16.2C59.7 16.4 60.1 16.5 60.6 16.5H62Z" fill="#4F5955"/>
<path d="M70.7 6.8C71.6 6.3 72.5 6 73.5 6V10.6H72.3C71.2 10.6 70.3 10.8 69.7 11.3C69.1 11.8 68.8 12.6 68.8 13.8V20.1H64.5V6.1H68.8V8.7C69.2 8 69.9 7.3 70.7 6.8Z" fill="#4F5955"/>
<path d="M75.5999 0.6C75.9999 0.2 76.6999 0 77.3999 0C78.0999 0 78.7999 0.2 79.1999 0.6C79.5999 1 79.8999 1.6 79.8999 2.2C79.8999 2.8 79.6999 3.4 79.1999 3.8C78.6999 4.2 78.0999 4.4 77.3999 4.4C76.6999 4.4 75.9999 4.3 75.5999 3.8C75.0999 3.4 74.8999 2.8 74.8999 2.2C74.8999 1.6 75.0999 1.1 75.5999 0.6ZM79.4999 6.2V20.2H75.1999V6.2H79.4999Z" fill="#4F5955"/>
<path d="M81.2002 20.1H85.4002L95.5002 6.19995H91.2002L81.2002 20.1Z" fill="#4F5955"/>
<path d="M89.2998 17.3999L91.1998 20.0999H95.4998L91.3998 14.3999L89.2998 17.3999Z" fill="#A6775B"/>
<path d="M90.5002 13.1L85.4002 6.19995H81.2002L88.3002 16.1L90.5002 13.1Z" fill="#4F5955"/>
</g>
<defs>
<clipPath id="clip0_359_6554">
<rect width="95.5" height="20.3" fill="white"/>
</clipPath>
</defs>
</svg>
