<svg width="154" height="65" viewBox="0 0 154 65" fill="none" xmlns="http://www.w3.org/2000/svg">
<g filter="url(#filter0_d_359_5950)">
<path d="M55.4615 42.5701C55.5455 42.572 55.6295 42.5637 55.7115 42.5452C55.768 42.5324 55.8217 42.5088 55.8695 42.4761C55.9062 42.4514 55.935 42.4169 55.9525 42.3762C55.9682 42.3337 55.9761 42.2886 55.9755 42.2432C55.975 42.1911 55.9613 42.1401 55.9355 42.0947C55.9098 42.0494 55.873 42.0113 55.8285 41.9842C55.6708 41.8876 55.501 41.8128 55.3235 41.7613C55.2195 41.7246 55.1155 41.6826 55.0115 41.6353C54.91 41.5895 54.8157 41.5292 54.7315 41.4563C54.6487 41.3826 54.5808 41.2935 54.5315 41.1941C54.4763 41.0774 54.4496 40.9492 54.4535 40.8201C54.451 40.6822 54.4794 40.5457 54.5365 40.4202C54.5908 40.3038 54.6708 40.2012 54.7705 40.1201C54.8794 40.0337 55.0041 39.9692 55.1375 39.9302C55.2956 39.8838 55.4597 39.8613 55.6245 39.8633C55.9517 39.8563 56.2753 39.9319 56.5655 40.0833L56.3585 40.6482C56.262 40.5994 56.1617 40.5585 56.0585 40.5261C55.9311 40.4883 55.7985 40.4704 55.6655 40.4732C55.5381 40.4636 55.4104 40.4881 55.2955 40.5442C55.2588 40.567 55.2289 40.5993 55.209 40.6377C55.1892 40.6761 55.18 40.7191 55.1825 40.7622C55.181 40.8144 55.1957 40.8657 55.2245 40.9092C55.2559 40.9527 55.2956 40.9893 55.3415 41.0171C55.3966 41.0515 55.4549 41.0808 55.5155 41.1043C55.5822 41.1303 55.6549 41.1571 55.7335 41.1851C55.8989 41.2464 56.0429 41.3069 56.1655 41.3662C56.2781 41.419 56.3814 41.4896 56.4715 41.5752C56.5518 41.654 56.6137 41.7497 56.6525 41.8552C56.6953 41.9807 56.7156 42.1126 56.7125 42.2451C56.7192 42.3768 56.6944 42.5083 56.6401 42.6284C56.5859 42.7486 56.5037 42.8542 56.4005 42.9363C56.1226 43.1198 55.7917 43.2058 55.4595 43.1812C55.3321 43.1823 55.2047 43.174 55.0785 43.1563C54.9773 43.1419 54.8771 43.1212 54.7785 43.0943C54.7018 43.0735 54.6266 43.0473 54.5535 43.0161C54.4996 42.9928 54.4468 42.9669 54.3955 42.9383L54.5955 42.3682C54.861 42.5086 55.1583 42.5775 55.4585 42.5681L55.4615 42.5701Z" fill="#B9B9B9"/>
<path d="M62.6975 42.5012V43.1162H60.5715V39.9343H61.2875V42.5012H62.6975Z" fill="#B9B9B9"/>
<path d="M69.4925 41.5233C69.4972 41.7685 69.4558 42.0124 69.3705 42.2423C69.2975 42.4369 69.184 42.6138 69.0375 42.7613C68.8959 42.9015 68.7252 43.009 68.5375 43.0763C68.3363 43.1476 68.1241 43.1831 67.9106 43.1812C67.701 43.1827 67.4928 43.1472 67.2956 43.0763C67.1068 43.0084 66.9346 42.9011 66.7906 42.7613C66.6415 42.6146 66.5255 42.4376 66.4505 42.2423C66.3638 42.0127 66.3218 41.7687 66.3266 41.5233C66.3215 41.2775 66.365 41.0332 66.4545 40.8043C66.533 40.6085 66.6512 40.4312 66.8016 40.2833C66.9442 40.1438 67.1145 40.0356 67.3016 39.9662C67.4937 39.8956 67.6969 39.8598 67.9016 39.8602C68.1112 39.859 68.3194 39.8948 68.5165 39.9662C68.7057 40.0343 68.8779 40.1426 69.0215 40.2833C69.1702 40.4312 69.286 40.6087 69.3615 40.8043C69.4506 41.0334 69.495 41.2775 69.4925 41.5233ZM67.0635 41.5233C67.0616 41.666 67.0808 41.8081 67.1205 41.9452C67.1544 42.0627 67.2105 42.1729 67.2856 42.2694C67.356 42.3587 67.4464 42.4303 67.5495 42.4784C67.6622 42.5271 67.7838 42.5521 67.9066 42.5521C68.0293 42.5521 68.1508 42.5271 68.2635 42.4784C68.3674 42.4307 68.4587 42.3591 68.5296 42.2694C68.6046 42.1728 68.6606 42.0626 68.6945 41.9452C68.7342 41.8081 68.7534 41.666 68.7515 41.5233C68.7533 41.3796 68.7341 41.2364 68.6945 41.0982C68.6607 40.9801 68.6048 40.8695 68.5296 40.7723C68.4586 40.6827 68.3673 40.6112 68.2635 40.5633C68.1516 40.5131 68.0301 40.4882 67.9075 40.4903C67.784 40.4881 67.6615 40.514 67.5495 40.5663C67.4467 40.6157 67.3565 40.6878 67.2856 40.7772C67.2103 40.8743 67.1542 40.9852 67.1205 41.1034C67.0824 41.24 67.0646 41.3814 67.0676 41.5233H67.0635Z" fill="#B9B9B9"/>
<path d="M74.9475 40.4852C74.8137 40.4728 74.6788 40.4914 74.5534 40.5396C74.428 40.5879 74.3155 40.6644 74.2245 40.7633C74.065 40.9835 73.9862 41.2519 74.0014 41.5233C73.9996 41.6668 74.0182 41.81 74.0565 41.9483C74.0892 42.0675 74.1454 42.1789 74.2215 42.2762C74.2951 42.3682 74.3892 42.4416 74.4964 42.4903C74.6182 42.5428 74.75 42.5683 74.8825 42.5653C74.9615 42.5653 75.0305 42.5653 75.0825 42.5653C75.1325 42.563 75.1824 42.5569 75.2315 42.5472V41.4322H75.9475V43.0072C75.8129 43.054 75.6748 43.0902 75.5345 43.1153C75.3036 43.157 75.0691 43.1759 74.8344 43.1722C74.6129 43.1752 74.3928 43.138 74.1845 43.0624C73.9962 42.9931 73.8255 42.8831 73.6845 42.7403C73.5422 42.5922 73.4333 42.4152 73.3654 42.2213C73.2871 41.9964 73.2489 41.7595 73.2525 41.5213C73.248 41.2799 73.29 41.0398 73.3764 40.8143C73.4526 40.619 73.5685 40.4417 73.7165 40.2933C73.8607 40.1506 74.0334 40.0402 74.2235 39.9693C74.4224 39.8952 74.6331 39.8578 74.8454 39.8592C75.0886 39.858 75.3308 39.8917 75.5644 39.9593C75.6384 39.9802 75.7107 40.0068 75.7805 40.0392C75.8365 40.0662 75.8805 40.0884 75.9015 40.1034L75.6944 40.6773C75.5867 40.6215 75.4739 40.5763 75.3575 40.5423C75.2243 40.5037 75.0862 40.4844 74.9475 40.4852Z" fill="#B9B9B9"/>
<path d="M82.0585 43.1172C82.0235 43.0062 81.9845 42.8921 81.9445 42.7761L81.8226 42.4282H80.5795L80.4585 42.7774C80.4185 42.894 80.3808 43.0072 80.3455 43.1172H79.6015C79.7208 42.7739 79.8346 42.4569 79.9426 42.1663C80.0506 41.8756 80.1558 41.6016 80.2585 41.3442C80.3611 41.0869 80.4612 40.8427 80.5585 40.6113C80.6559 40.38 80.7596 40.1543 80.8696 39.9343H81.5485C81.6532 40.155 81.7561 40.3807 81.8575 40.6113C81.9588 40.842 82.0611 41.0862 82.1645 41.3442C82.2678 41.6009 82.3732 41.8749 82.4805 42.1663C82.5879 42.4576 82.7019 42.7745 82.8226 43.1172H82.0585ZM81.1985 40.6563C81.1825 40.7029 81.1591 40.7656 81.1285 40.8442L81.0235 41.1201C80.9842 41.2248 80.9402 41.3395 80.8915 41.4641C80.8429 41.5888 80.7935 41.7205 80.7435 41.8591H81.6535C81.6048 41.7211 81.5575 41.5879 81.5115 41.4592C81.4655 41.3306 81.4222 41.2156 81.3815 41.1143L81.2735 40.8391C81.2415 40.7611 81.2175 40.7013 81.2005 40.6563H81.1985Z" fill="#B9B9B9"/>
<path d="M88.6706 43.1172C88.4659 42.7525 88.2439 42.393 88.0045 42.0383C87.7699 41.6891 87.5154 41.3534 87.2425 41.0332V43.1182H86.5355V39.9363H87.1186C87.2192 40.0376 87.3309 40.1617 87.4535 40.3084C87.5762 40.455 87.7009 40.612 87.8275 40.7793C87.9542 40.946 88.0806 41.119 88.2066 41.2983C88.3326 41.4777 88.4505 41.6499 88.5605 41.8152V39.9373H89.2725V43.1191L88.6706 43.1172Z" fill="#B9B9B9"/>
<path d="M95.9704 40.4852C95.8367 40.4728 95.7019 40.4914 95.5765 40.5396C95.4511 40.5879 95.3385 40.6644 95.2475 40.7633C95.0882 40.9835 95.0094 41.2519 95.0245 41.5233C95.0229 41.6668 95.0413 41.8099 95.0794 41.9483C95.1126 42.0676 95.169 42.1789 95.2455 42.2762C95.319 42.3682 95.4133 42.4416 95.5205 42.4903C95.6419 42.5427 95.7733 42.5682 95.9055 42.5653C95.9855 42.5653 96.0534 42.5653 96.1054 42.5653C96.1555 42.563 96.2053 42.5569 96.2545 42.5472V41.4322H96.9704V43.0072C96.8358 43.054 96.6978 43.0903 96.5575 43.1153C96.3265 43.1569 96.0921 43.1759 95.8575 43.1722C95.636 43.1752 95.4157 43.1381 95.2075 43.0624C95.0192 42.9931 94.8484 42.8832 94.7075 42.7403C94.5653 42.5921 94.4566 42.4151 94.3885 42.2213C94.3106 41.9963 94.2726 41.7594 94.2765 41.5213C94.2719 41.2799 94.314 41.0398 94.4005 40.8143C94.4767 40.6191 94.5924 40.4417 94.7405 40.2933C94.8846 40.1506 95.0575 40.0402 95.2475 39.9693C95.4465 39.8952 95.6572 39.8579 95.8695 39.8592C96.1127 39.8579 96.3548 39.8917 96.5885 39.9593C96.6625 39.9801 96.7347 40.0066 96.8044 40.0392C96.8614 40.0662 96.9045 40.0884 96.9265 40.1034L96.7195 40.6773C96.6114 40.6216 96.4982 40.5764 96.3814 40.5423C96.2479 40.5036 96.1095 40.4843 95.9704 40.4852Z" fill="#B9B9B9"/>
<path d="M103.977 41.5233C103.982 41.7685 103.941 42.0124 103.856 42.2423C103.782 42.4368 103.669 42.6138 103.523 42.7613C103.381 42.9015 103.21 43.009 103.023 43.0763C102.821 43.1476 102.609 43.1831 102.396 43.1812C102.186 43.1827 101.978 43.1471 101.781 43.0763C101.592 43.0083 101.42 42.901 101.276 42.7613C101.127 42.6146 101.011 42.4376 100.936 42.2423C100.849 42.0127 100.807 41.7687 100.812 41.5233C100.806 41.2775 100.85 41.0332 100.94 40.8043C101.018 40.6086 101.136 40.4312 101.287 40.2833C101.431 40.1433 101.603 40.0351 101.792 39.9662C101.984 39.8956 102.187 39.8598 102.392 39.8602C102.601 39.859 102.809 39.8948 103.007 39.9662C103.196 40.0343 103.368 40.1426 103.512 40.2833C103.66 40.4311 103.776 40.6086 103.852 40.8043C103.939 41.0337 103.982 41.2778 103.977 41.5233ZM101.549 41.5233C101.547 41.666 101.566 41.8081 101.606 41.9452C101.639 42.0627 101.695 42.1729 101.771 42.2694C101.841 42.3587 101.931 42.4303 102.035 42.4784C102.147 42.5271 102.269 42.5521 102.392 42.5521C102.514 42.5521 102.636 42.5271 102.749 42.4784C102.852 42.4306 102.944 42.359 103.015 42.2694C103.09 42.1729 103.146 42.0627 103.18 41.9452C103.219 41.8081 103.239 41.666 103.237 41.5233C103.238 41.3796 103.219 41.2363 103.18 41.0982C103.146 40.98 103.09 40.8695 103.015 40.7723C102.944 40.6828 102.852 40.6112 102.749 40.5633C102.637 40.5131 102.515 40.4882 102.393 40.4903C102.269 40.4881 102.147 40.514 102.035 40.5663C101.932 40.6157 101.841 40.6878 101.771 40.7772C101.695 40.8743 101.639 40.9852 101.606 41.1034C101.566 41.2398 101.547 41.3813 101.549 41.5233Z" fill="#B9B9B9"/>
<path d="M107.88 43.1172V39.9353H110.03V40.5352H108.598V41.1602H109.87V41.7473H108.598V42.5142H110.135V43.1143L107.88 43.1172Z" fill="#B9B9B9"/>
<path d="M114.835 42.5701C114.92 42.572 115.003 42.5637 115.085 42.5452C115.142 42.5326 115.196 42.5091 115.245 42.4761C115.281 42.4514 115.309 42.4168 115.326 42.3762C115.342 42.3337 115.35 42.2886 115.35 42.2432C115.349 42.1911 115.335 42.1401 115.309 42.0948C115.284 42.0494 115.247 42.0113 115.203 41.9842C115.045 41.8877 114.875 41.8128 114.698 41.7613C114.594 41.7246 114.49 41.6826 114.386 41.6353C114.284 41.5895 114.19 41.5293 114.106 41.4563C114.023 41.3826 113.955 41.2935 113.906 41.1941C113.851 41.0773 113.824 40.9492 113.828 40.8201C113.825 40.6822 113.853 40.5456 113.911 40.4202C113.965 40.3038 114.045 40.2012 114.145 40.1201C114.254 40.0336 114.379 39.9691 114.512 39.9302C114.67 39.8838 114.834 39.8613 114.998 39.8633C115.326 39.8562 115.649 39.9319 115.939 40.0833L115.732 40.6482C115.636 40.5994 115.536 40.5585 115.433 40.5262C115.305 40.4882 115.172 40.4704 115.039 40.4732C114.912 40.4637 114.784 40.4883 114.669 40.5442C114.633 40.5672 114.603 40.5996 114.584 40.638C114.564 40.6763 114.555 40.7192 114.558 40.7622C114.556 40.8143 114.57 40.8656 114.599 40.9092C114.63 40.9527 114.67 40.9893 114.715 41.0171C114.771 41.0515 114.829 41.0808 114.89 41.1043C114.956 41.1303 115.029 41.1571 115.109 41.1851C115.274 41.2464 115.418 41.3069 115.541 41.3662C115.653 41.4191 115.756 41.4897 115.845 41.5752C115.926 41.654 115.988 41.7497 116.027 41.8553C116.069 41.9807 116.09 42.1126 116.086 42.2451C116.093 42.3768 116.068 42.5083 116.014 42.6284C115.96 42.7486 115.878 42.8542 115.774 42.9363C115.496 43.1197 115.166 43.2057 114.834 43.1812C114.706 43.1823 114.579 43.174 114.453 43.1563C114.351 43.1419 114.251 43.1212 114.153 43.0943C114.019 43.058 113.89 43.0057 113.77 42.9383L113.97 42.3682C114.081 42.4271 114.199 42.474 114.32 42.5081C114.488 42.5533 114.662 42.5742 114.835 42.5701Z" fill="#B9B9B9"/>
<path d="M122.966 39.9353H123.684V43.1172H122.966V41.7673H121.767V43.1172H121.051V39.9353H121.767V41.1524H122.966V39.9353Z" fill="#B9B9B9"/>
<path d="M127.72 43.1172V39.9353H129.868V40.5352H128.435V41.1602H129.707V41.7473H128.435V42.5142H129.975V43.1143L127.72 43.1172Z" fill="#B9B9B9"/>
<path d="M134.743 39.8981C135.126 39.8741 135.509 39.9628 135.842 40.1532C135.969 40.2406 136.071 40.3595 136.138 40.4984C136.205 40.6373 136.234 40.7914 136.223 40.9452C136.232 41.1384 136.178 41.3291 136.07 41.4892C135.955 41.6374 135.802 41.7511 135.627 41.8173C135.691 41.8973 135.758 41.9882 135.826 42.0902C135.895 42.1922 135.966 42.3003 136.035 42.4113C136.104 42.5223 136.172 42.6392 136.236 42.7602C136.3 42.8812 136.36 43.0001 136.415 43.1161H135.614L135.436 42.7992C135.376 42.6922 135.316 42.5882 135.253 42.4872C135.19 42.3862 135.128 42.2871 135.066 42.2001C135.004 42.1131 134.943 42.0282 134.881 41.9542H134.527V43.1161H133.811V39.9801C133.97 39.9492 134.132 39.9279 134.295 39.9162C134.463 39.9042 134.612 39.8981 134.743 39.8981ZM134.785 40.5092C134.733 40.5092 134.684 40.5092 134.644 40.5092L134.528 40.5182V41.3812H134.728C134.925 41.3954 135.124 41.361 135.306 41.2811C135.364 41.2459 135.411 41.195 135.442 41.1342C135.473 41.0734 135.486 41.0051 135.481 40.9372C135.486 40.8705 135.472 40.8038 135.441 40.7448C135.409 40.6858 135.362 40.637 135.304 40.6041C135.141 40.5302 134.963 40.4983 134.785 40.5092Z" fill="#B9B9B9"/>
<path d="M140.18 43.1172V39.9353H142.328V40.5352H140.896V41.1602H142.168V41.7473H140.896V42.5142H142.433V43.1143L140.18 43.1172Z" fill="#B9B9B9"/>
<path d="M47.6606 34.2432V24.3512H54.2856V26.2212H49.8856V28.2912H53.7976V30.1613H49.8856V34.2442L47.6606 34.2432Z" fill="#B9B9B9"/>
<path d="M58.7546 24.2353C59.9448 24.1618 61.1305 24.4371 62.1667 25.0272C62.5615 25.2991 62.8784 25.6694 63.0862 26.1013C63.2941 26.5333 63.3856 27.0121 63.3517 27.4903C63.3792 28.0911 63.2115 28.6847 62.8736 29.1823C62.5176 29.6435 62.0406 29.9969 61.4956 30.2033C61.6956 30.4506 61.905 30.7336 62.1236 31.0523C62.3423 31.3709 62.559 31.7043 62.7737 32.0523C62.9877 32.3996 63.1946 32.7612 63.3946 33.1372C63.5946 33.5132 63.7803 33.8823 63.9516 34.2443H61.4616L60.9096 33.2593C60.723 32.926 60.532 32.6022 60.3366 32.2882C60.1413 31.9742 59.948 31.6769 59.7566 31.3963C59.5653 31.1156 59.3743 30.8609 59.1836 30.6322H58.0837V34.2443H55.8567V24.4922C56.3542 24.3955 56.8571 24.3287 57.3626 24.2923C57.8813 24.2543 58.3453 24.2353 58.7546 24.2353ZM58.8827 26.1353C58.7207 26.1353 58.5753 26.1399 58.4466 26.1492L58.0826 26.1782V28.8603H58.7106C59.3272 28.9035 59.9451 28.7958 60.5107 28.5463C60.692 28.4362 60.8389 28.2774 60.9347 28.0882C61.0305 27.8989 61.0713 27.6866 61.0526 27.4752C61.0691 27.2683 61.026 27.0609 60.9286 26.8776C60.8311 26.6942 60.6834 26.5424 60.5027 26.4402C59.9959 26.2068 59.4396 26.1028 58.8827 26.1353Z" fill="#B9B9B9"/>
<path d="M65.3796 34.2432V24.3512H72.0616V26.2212H67.6066V28.1632H71.5616V29.9912H67.6066V32.3753H72.3896V34.2462L65.3796 34.2432Z" fill="#B9B9B9"/>
<path d="M74.0316 34.2432V24.3512H80.7136V26.2212H76.2587V28.1632H80.2136V29.9912H76.2587V32.3753H81.0416V34.2462L74.0316 34.2432Z" fill="#B9B9B9"/>
<path d="M91.3506 29.2892C91.367 30.0557 91.231 30.8178 90.9506 31.5313C90.7035 32.1422 90.3144 32.6855 89.8156 33.1162C89.2914 33.5532 88.6807 33.8742 88.0236 34.0583C87.2529 34.2767 86.4546 34.3824 85.6536 34.3722C85.2536 34.3722 84.7869 34.3556 84.2536 34.3223C83.7257 34.2898 83.2009 34.2206 82.6827 34.1153V24.4783C83.2135 24.3811 83.7498 24.3166 84.2886 24.2853C84.8453 24.252 85.3237 24.2353 85.7237 24.2353C86.5017 24.2266 87.2772 24.3228 88.0296 24.5213C88.6795 24.6914 89.2858 24.9982 89.8077 25.4213C90.3116 25.8432 90.7038 26.3827 90.9496 26.9922C91.2333 27.724 91.3696 28.5046 91.3506 29.2892ZM84.9117 32.4302C85.0163 32.4395 85.1377 32.4465 85.2757 32.4512C85.4137 32.4562 85.5756 32.4583 85.7686 32.4583C86.2171 32.4952 86.6685 32.4394 87.0946 32.2946C87.5207 32.1497 87.9125 31.9188 88.2456 31.6162C88.8117 30.9778 89.1019 30.1411 89.0527 29.2892C89.1155 28.8552 89.0753 28.4125 88.9352 27.997C88.7951 27.5814 88.5591 27.2047 88.2463 26.8974C87.9335 26.59 87.5528 26.3607 87.1348 26.2279C86.7169 26.0952 86.2734 26.0627 85.8406 26.1332C85.688 26.1332 85.531 26.1356 85.3697 26.1403C85.2168 26.1443 85.0642 26.1563 84.9126 26.1763L84.9117 32.4302Z" fill="#B9B9B9"/>
<path d="M102.63 29.2882C102.644 30.0503 102.516 30.8084 102.252 31.5232C102.024 32.1276 101.671 32.6772 101.217 33.1362C100.773 33.5728 100.24 33.9067 99.6536 34.1142C99.0281 34.3367 98.3684 34.4477 97.7046 34.4422C97.0526 34.4465 96.405 34.3354 95.7916 34.1142C95.2049 33.9032 94.6697 33.5698 94.2216 33.1362C93.7586 32.6798 93.3982 32.1299 93.1646 31.5232C92.8952 30.8095 92.7645 30.0509 92.7796 29.2882C92.7645 28.5245 92.9004 27.7652 93.1796 27.0542C93.4234 26.4457 93.7905 25.8941 94.2576 25.4342C94.7057 24.9989 95.2407 24.6633 95.8275 24.4492C96.4291 24.2294 97.0651 24.1183 97.7056 24.1212C98.3576 24.1171 99.0051 24.2282 99.6185 24.4492C100.206 24.6611 100.742 24.997 101.189 25.4342C101.651 25.8941 102.011 26.446 102.246 27.0542C102.515 27.7676 102.645 28.5259 102.63 29.2882ZM95.0765 29.2882C95.0707 29.7326 95.1306 30.1754 95.2545 30.6022C95.3604 30.9674 95.5348 31.3093 95.7686 31.6092C95.9879 31.8868 96.2691 32.1093 96.5896 32.2591C96.9403 32.4099 97.3179 32.4877 97.6996 32.4877C98.0813 32.4877 98.4589 32.4099 98.8096 32.2591C99.1329 32.1106 99.4166 31.888 99.6376 31.6092C99.8712 31.3092 100.046 30.9674 100.152 30.6022C100.276 30.1754 100.336 29.7326 100.331 29.2882C100.336 28.8415 100.276 28.3964 100.152 27.9671C100.046 27.5995 99.872 27.2554 99.6376 26.9532C99.4165 26.6745 99.1328 26.4518 98.8096 26.3032C98.4618 26.1466 98.0839 26.0684 97.7025 26.0742C97.3181 26.067 96.9371 26.1477 96.5886 26.3102C96.2688 26.4643 95.988 26.6889 95.7676 26.9671C95.533 27.2692 95.3585 27.6134 95.2536 27.9812C95.1309 28.4058 95.0713 28.8462 95.0765 29.2882Z" fill="#B9B9B9"/>
<path d="M107.112 24.3512C107.284 24.6652 107.482 25.0532 107.706 25.5152C107.93 25.9772 108.163 26.4772 108.406 27.0152C108.649 27.5532 108.89 28.1029 109.129 28.6642L109.802 30.2492L110.475 28.6642C110.713 28.1029 110.954 27.5532 111.198 27.0152C111.441 26.4772 111.674 25.9772 111.898 25.5152C112.122 25.0532 112.32 24.6652 112.492 24.3512H114.52C114.614 25.0079 114.702 25.7433 114.784 26.5573C114.865 27.3713 114.936 28.2182 114.998 29.0982C115.06 29.9788 115.117 30.8616 115.169 31.7462C115.221 32.6309 115.266 33.4642 115.304 34.2462H113.134C113.105 33.2849 113.067 32.2379 113.02 31.1052C112.972 29.9726 112.901 28.8302 112.806 27.6782C112.634 28.0782 112.443 28.5209 112.233 29.0062C112.023 29.4916 111.815 29.9768 111.61 30.4622C111.404 30.9475 111.206 31.4116 111.016 31.8543C110.825 32.2969 110.663 32.6752 110.529 32.9892H108.973C108.839 32.6752 108.677 32.2969 108.486 31.8543C108.294 31.4116 108.096 30.9475 107.892 30.4622C107.686 29.9768 107.479 29.4916 107.269 29.0062C107.059 28.5209 106.868 28.0782 106.696 27.6782C106.6 28.8296 106.529 29.9719 106.482 31.1052C106.434 32.2386 106.396 33.2856 106.368 34.2462H104.198C104.236 33.4656 104.281 32.6322 104.334 31.7462C104.386 30.8602 104.443 29.9775 104.505 29.0982C104.567 28.2182 104.638 27.3713 104.719 26.5573C104.799 25.7433 104.887 25.0079 104.983 24.3512H107.112Z" fill="#B9B9B9"/>
<path d="M120.591 34.3721C120.048 34.3721 119.508 34.3555 118.97 34.3222C118.406 34.2852 117.845 34.2067 117.293 34.0872V24.4921C117.789 24.4013 118.29 24.3369 118.793 24.2991C119.335 24.2565 119.84 24.2352 120.306 24.2352C120.887 24.2315 121.467 24.277 122.041 24.3712C122.519 24.4444 122.98 24.6015 123.404 24.8351C123.771 25.0411 124.078 25.3389 124.296 25.6992C124.521 26.1019 124.632 26.5588 124.617 27.0202C124.617 27.4068 124.51 27.786 124.309 28.1159C124.107 28.4459 123.819 28.7138 123.475 28.8902C124.004 29.0515 124.46 29.3956 124.76 29.8611C124.992 30.2853 125.11 30.7626 125.103 31.2462C125.13 31.7011 125.04 32.1554 124.841 32.5655C124.642 32.9756 124.342 33.3277 123.968 33.5882C122.945 34.1789 121.769 34.4518 120.591 34.3721ZM119.463 28.2332H120.548C121.052 28.2697 121.557 28.1789 122.018 27.9692C122.163 27.8823 122.281 27.7569 122.359 27.6069C122.438 27.4568 122.473 27.288 122.461 27.1192C122.475 26.9496 122.439 26.7794 122.358 26.6298C122.277 26.4802 122.154 26.3577 122.004 26.2772C121.582 26.0921 121.122 26.0088 120.662 26.0341C120.471 26.0341 120.266 26.0365 120.048 26.0412C119.829 26.0459 119.634 26.0579 119.463 26.0772V28.2332ZM119.463 29.9332V32.4892C119.625 32.5085 119.801 32.5228 119.991 32.5322C120.181 32.5415 120.39 32.5462 120.619 32.5462C121.171 32.5677 121.721 32.4705 122.232 32.2612C122.431 32.1701 122.597 32.0196 122.707 31.8303C122.817 31.641 122.865 31.4222 122.846 31.2042C122.861 31.0092 122.821 30.8139 122.73 30.6408C122.639 30.4677 122.501 30.324 122.332 30.2261C121.874 30.006 121.368 29.9052 120.861 29.9332H119.463Z" fill="#B9B9B9"/>
<path d="M126.887 24.3512H129.114V34.2462H126.887V24.3512Z" fill="#B9B9B9"/>
<path d="M134.297 24.2352C135.487 24.1616 136.673 24.4368 137.71 25.0272C138.104 25.299 138.422 25.6693 138.629 26.1013C138.837 26.5333 138.929 27.012 138.895 27.4902C138.922 28.091 138.755 28.6847 138.417 29.1822C138.061 29.6434 137.583 29.9968 137.039 30.2032C137.239 30.4505 137.448 30.7335 137.667 31.0522C137.885 31.3709 138.102 31.7042 138.317 32.0522C138.531 32.3995 138.738 32.7611 138.938 33.1371C139.138 33.5131 139.323 33.8822 139.495 34.2442H137.005L136.453 33.2592C136.267 32.9259 136.076 32.6021 135.88 32.2881C135.684 31.9741 135.49 31.6768 135.299 31.3962C135.108 31.1155 134.917 30.8608 134.726 30.6321H133.626V34.2442H131.398V24.4921C131.895 24.3954 132.399 24.3286 132.905 24.2922C133.423 24.2542 133.887 24.2352 134.297 24.2352ZM134.426 26.1352C134.264 26.1352 134.119 26.1398 133.99 26.1491L133.626 26.1782V28.8602H134.254C134.87 28.9037 135.488 28.796 136.054 28.5462C136.235 28.4362 136.382 28.2776 136.478 28.0883C136.574 27.899 136.615 27.6866 136.597 27.4752C136.613 27.2682 136.57 27.0609 136.473 26.8775C136.375 26.6941 136.227 26.5423 136.047 26.4401C135.54 26.2066 134.983 26.1026 134.426 26.1352Z" fill="#B9B9B9"/>
<path d="M149.589 29.2892C149.605 30.0557 149.469 30.8178 149.189 31.5313C148.942 32.1422 148.553 32.6855 148.054 33.1162C147.53 33.5533 146.919 33.8743 146.262 34.0583C145.491 34.2767 144.693 34.3825 143.892 34.3722C143.492 34.3722 143.025 34.3556 142.492 34.3223C141.964 34.2897 141.44 34.2205 140.922 34.1153V24.4783C141.453 24.3811 141.989 24.3166 142.528 24.2853C143.084 24.252 143.563 24.2353 143.963 24.2353C144.741 24.2266 145.516 24.3228 146.269 24.5213C146.919 24.6914 147.525 24.9982 148.047 25.4213C148.551 25.8432 148.943 26.3827 149.189 26.9922C149.472 27.724 149.608 28.5047 149.589 29.2892ZM143.15 32.4302C143.254 32.4395 143.375 32.4465 143.514 32.4512C143.651 32.4562 143.814 32.4583 144.006 32.4583C144.454 32.4952 144.905 32.4394 145.332 32.2946C145.758 32.1497 146.15 31.9188 146.483 31.6162C147.049 30.9779 147.339 30.1411 147.29 29.2892C147.352 28.8552 147.312 28.4125 147.172 27.997C147.032 27.5814 146.796 27.2047 146.483 26.8974C146.17 26.59 145.79 26.3607 145.372 26.2279C144.954 26.0952 144.51 26.0627 144.078 26.1332C143.925 26.1332 143.768 26.1356 143.607 26.1403C143.454 26.1442 143.301 26.1562 143.15 26.1763V32.4302Z" fill="#B9B9B9"/>
<path d="M50.0966 18.842L45.7767 16.266C45.1202 14.7558 44.1906 13.3797 43.0346 12.207L42.9267 12.086C40.6527 9.544 38.1267 8.35295 35.4167 8.54095C31.9967 8.77995 28.5677 11.241 25.4697 15.67C24.8177 15.404 24.1627 15.148 23.5097 14.896C18.2807 12.865 13.3416 10.947 10.4936 3.17999L9.32771 0L8.9206 3.36298C8.53665 6.2989 8.43961 9.26522 8.63069 12.22C7.49147 10.8716 6.56726 9.35539 5.8907 7.72498L4.6977 4.94098L4.33467 7.948C2.21967 25.441 10.5347 29.214 17.8707 32.543L17.8836 32.549C17.142 35.9351 16.6341 39.3682 16.3636 42.824C16.1786 44.59 15.9637 46.591 15.7037 48.446C15.3507 48.503 15.0037 48.555 14.6667 48.608C11.7767 49.051 9.68968 49.37 9.09968 50.777C8.61268 51.937 9.50663 53.177 9.79963 53.582C10.7086 54.843 12.0436 56.433 13.5236 56.433C13.7026 56.433 13.8808 56.4094 14.0537 56.363C15.6937 55.926 16.5236 53.642 17.1376 49.857C18.4904 49.6291 19.8267 49.312 21.1376 48.908C32.7876 45.208 35.0117 37.05 36.9747 29.85C38.3507 24.803 39.5586 20.376 43.8426 18.301C45.0746 17.831 50.0966 18.842 50.0966 18.842ZM13.6376 54.79C13.2536 54.89 12.3857 54.381 11.1217 52.629C10.4997 51.767 10.5796 51.458 10.6026 51.405C10.8396 50.84 13.1026 50.4939 14.9146 50.2159L15.4387 50.1349C15.0027 52.6369 14.4316 54.578 13.6376 54.79ZM5.6977 10.929C6.56675 12.3959 7.66104 13.7171 8.94062 14.844C10.3546 23.552 15.2096 27.306 19.6336 30.719C20.5936 31.46 21.5247 32.179 22.3907 32.925C21.1547 32.244 19.8446 31.649 18.5456 31.059C11.8126 28.005 4.8637 24.853 5.6977 10.929ZM20.6446 47.358C19.5765 47.6891 18.4895 47.9562 17.3896 48.158C17.5956 46.624 17.7837 44.898 17.9837 42.995C18.2458 39.7172 18.7133 36.4592 19.3836 33.24C23.9446 35.37 27.6147 37.653 27.5327 43.879C25.4602 45.4364 23.1281 46.6143 20.6446 47.358ZM29.1367 42.4789C28.7487 35.7009 24.7967 32.6489 20.6267 29.4319C15.0707 25.1459 9.33763 20.723 10.2476 6.651C13.4546 12.738 18.2577 14.603 22.9217 16.415C28.1297 18.438 33.0507 20.35 35.7597 28.124C35.6404 28.5546 35.5216 28.9879 35.4036 29.424C34.1396 34.0579 32.8476 38.788 29.1376 42.477L29.1367 42.4789ZM36.5097 25.607C34.683 21.3834 31.2654 18.0499 26.9976 16.329C29.7186 12.543 32.7257 10.364 35.5307 10.167C37.7107 10.011 39.7917 11.025 41.7137 13.174L41.8227 13.295C42.7293 14.2184 43.49 15.2745 44.0787 16.4269C39.6927 18.0879 37.8257 21.569 36.5097 25.605V25.607Z" fill="#B9B9B9"/>
</g>
<defs>
<filter id="filter0_d_359_5950" x="0" y="0" width="153.591" height="64.433" filterUnits="userSpaceOnUse" color-interpolation-filters="sRGB">
<feFlood flood-opacity="0" result="BackgroundImageFix"/>
<feColorMatrix in="SourceAlpha" type="matrix" values="0 0 0 0 0 0 0 0 0 0 0 0 0 0 0 0 0 0 127 0" result="hardAlpha"/>
<feOffset dy="4"/>
<feGaussianBlur stdDeviation="2"/>
<feComposite in2="hardAlpha" operator="out"/>
<feColorMatrix type="matrix" values="0 0 0 0 0 0 0 0 0 0 0 0 0 0 0 0 0 0 0.25 0"/>
<feBlend mode="normal" in2="BackgroundImageFix" result="effect1_dropShadow_359_5950"/>
<feBlend mode="normal" in="SourceGraphic" in2="effect1_dropShadow_359_5950" result="shape"/>
</filter>
</defs>
</svg>
