<svg width="17" height="21" viewBox="0 0 17 21" fill="none" xmlns="http://www.w3.org/2000/svg">
<path d="M8.41098 4.51404C7.63963 4.51404 6.88562 4.74277 6.24426 5.17131C5.60291 5.59985 5.10304 6.20895 4.80786 6.92158C4.51268 7.63421 4.43544 8.41837 4.58592 9.1749C4.73641 9.93142 5.10785 10.6263 5.65328 11.1718C6.1987 11.7172 6.89361 12.0886 7.65013 12.2391C8.40666 12.3896 9.19083 12.3124 9.90346 12.0172C10.6161 11.722 11.2252 11.2221 11.6537 10.5808C12.0823 9.93941 12.311 9.18539 12.311 8.41404C12.311 7.90188 12.2101 7.39475 12.0141 6.92158C11.8181 6.44841 11.5309 6.01847 11.1687 5.65633C10.8066 5.29418 10.3766 5.00691 9.90346 4.81091C9.43029 4.61492 8.92314 4.51404 8.41098 4.51404ZM8.41098 10.67C7.96459 10.67 7.52822 10.5377 7.15706 10.2897C6.7859 10.0417 6.49662 9.68917 6.32579 9.27676C6.15496 8.86434 6.11027 8.41054 6.19736 7.97272C6.28445 7.53491 6.4994 7.13275 6.81505 6.8171C7.1307 6.50145 7.53286 6.2865 7.97067 6.19941C8.40849 6.11232 8.86229 6.15702 9.27471 6.32784C9.68712 6.49867 10.0396 6.78796 10.2876 7.15912C10.5356 7.53028 10.668 7.96665 10.668 8.41304C10.6672 9.01139 10.4292 9.585 10.0061 10.0081C9.58296 10.4312 9.00933 10.6693 8.41098 10.67Z" fill="#D9C3A9"/>
<path d="M8.413 0C6.18246 0.00238235 4.04397 0.889514 2.46674 2.46674C0.889512 4.04397 0.00238235 6.18247 0 8.413V8.646C0 10.992 1.345 13.726 4 16.772C5.19763 18.1433 6.50168 19.418 7.9 20.584L8.413 21L8.929 20.583C10.3273 19.417 11.6314 18.1424 12.829 16.771C15.482 13.725 16.829 10.991 16.829 8.645V8.413C16.8266 6.18195 15.9391 4.043 14.3612 2.46568C12.7833 0.88837 10.6441 0.00158818 8.413 0V0ZM15.184 8.646C15.184 12.611 10.075 17.41 8.413 18.867C6.75 17.41 1.642 12.61 1.642 8.646V8.413C1.642 7.52375 1.81715 6.64322 2.15745 5.82166C2.49775 5.0001 2.99653 4.25362 3.62532 3.62483C4.25412 2.99603 5.0006 2.49725 5.82216 2.15695C6.64371 1.81665 7.52425 1.6415 8.4135 1.6415C9.30274 1.6415 10.1833 1.81665 11.0048 2.15695C11.8264 2.49725 12.5729 2.99603 13.2017 3.62483C13.8305 4.25362 14.3292 5.0001 14.6695 5.82166C15.0098 6.64322 15.185 7.52375 15.185 8.413L15.184 8.646Z" fill="#D9C3A9"/>
</svg>
