<svg width="17" height="13" viewBox="0 0 17 13" fill="none" xmlns="http://www.w3.org/2000/svg">
<path d="M1.993 12.485C1.46499 12.4832 0.959135 12.2726 0.585774 11.8992C0.212413 11.5259 0.00184482 11.02 0 10.492L0 1.992C0.00210814 1.46416 0.212793 0.958565 0.586125 0.585419C0.959458 0.212274 1.46516 0.00184323 1.993 0L15.008 0C15.5358 0.00210814 16.0414 0.212793 16.4146 0.586125C16.7877 0.959458 16.9982 1.46516 17 1.993V10.493C16.9982 11.021 16.7876 11.5269 16.4142 11.9002C16.0409 12.2736 15.535 12.4842 15.007 12.486L1.993 12.485ZM1.329 10.492C1.32926 10.668 1.39931 10.8368 1.52377 10.9612C1.64824 11.0857 1.81698 11.1557 1.993 11.156H15.008C15.184 11.1557 15.3528 11.0857 15.4772 10.9612C15.6017 10.8368 15.6717 10.668 15.672 10.492V2.4L8.5 7.734L1.328 2.4L1.329 10.492ZM8.5 6.079L14.887 1.329H2.114L8.5 6.079Z" fill="#D9C3A9"/>
</svg>
