<svg width="17" height="17" viewBox="0 0 17 17" fill="none" xmlns="http://www.w3.org/2000/svg">
<path d="M16.174 2.22L13.947 0L9.32 4.619L11.113 6.471C10.5474 7.44808 9.8536 8.34505 9.05 9.138C8.25234 9.94568 7.35116 10.6441 6.37 11.215L4.554 9.422L0 13.949L2.215 16.179C2.62652 16.5917 3.15631 16.866 3.73083 16.9638C4.30535 17.0617 4.89608 16.9782 5.421 16.725C7.85736 15.5234 10.078 13.9268 11.993 12C13.9208 10.0856 15.5184 7.86521 16.721 5.429C16.905 5.05005 17.0004 4.63424 17 4.213C17.0001 3.8428 16.9272 3.47622 16.7855 3.13423C16.6438 2.79224 16.436 2.48157 16.174 2.22ZM15.526 4.846C14.388 7.14933 12.8766 9.24838 11.053 11.058C9.24369 12.8815 7.14499 14.393 4.842 15.531C4.56572 15.6637 4.255 15.7072 3.9529 15.6554C3.65081 15.6036 3.3723 15.4592 3.156 15.242L1.877 13.955L4.557 11.291L6.104 12.818L6.518 12.634C7.81039 11.9831 8.98355 11.1186 9.988 10.077C11.0272 9.07806 11.8877 7.90848 12.532 6.619L12.711 6.211L11.183 4.634L13.947 1.874L15.232 3.159C15.4501 3.37488 15.5955 3.65329 15.6482 3.95558C15.7009 4.25788 15.6582 4.56908 15.526 4.846Z" fill="#D9C3A9"/>
</svg>
